<?xml version="1.0" encoding="UTF-8" standalone="no"?>
<!-- Created with Inkscape (http://www.inkscape.org/) -->

<svg
   xmlns:dc="http://purl.org/dc/elements/1.1/"
   xmlns:cc="http://creativecommons.org/ns#"
   xmlns:rdf="http://www.w3.org/1999/02/22-rdf-syntax-ns#"
   xmlns:svg="http://www.w3.org/2000/svg"
   xmlns="http://www.w3.org/2000/svg"
   xmlns:sodipodi="http://sodipodi.sourceforge.net/DTD/sodipodi-0.dtd"
   xmlns:inkscape="http://www.inkscape.org/namespaces/inkscape"
   width="500mm"
   height="500mm"
   viewBox="0 0 500 500"
   version="1.1"
   id="svg8"
   inkscape:version="0.92.3 (2405546, 2018-03-11)"
   sodipodi:docname="icon_fighting.svg">
  <defs
     id="defs2" />
  <sodipodi:namedview
     id="base"
     pagecolor="#ffffff"
     bordercolor="#666666"
     borderopacity="1.0"
     inkscape:pageopacity="0.0"
     inkscape:pageshadow="2"
     inkscape:zoom="0.37772166"
     inkscape:cx="865.44059"
     inkscape:cy="921.99032"
     inkscape:document-units="px"
     inkscape:current-layer="layer1"
     showgrid="true"
     inkscape:snap-page="true"
     inkscape:snap-bbox="false"
     inkscape:snap-grids="true"
     inkscape:snap-object-midpoints="false"
     inkscape:snap-bbox-midpoints="false"
     inkscape:window-width="1920"
     inkscape:window-height="1017"
     inkscape:window-x="-8"
     inkscape:window-y="-8"
     inkscape:window-maximized="1">
    <inkscape:grid
       type="xygrid"
       id="grid819" />
  </sodipodi:namedview>
  <metadata
     id="metadata5">
    <rdf:RDF>
      <cc:Work
         rdf:about="">
        <dc:format>image/svg+xml</dc:format>
        <dc:type
           rdf:resource="http://purl.org/dc/dcmitype/StillImage" />
        <dc:title></dc:title>
      </cc:Work>
    </rdf:RDF>
  </metadata>
  <g
     inkscape:label="Layer 1"
     inkscape:groupmode="layer"
     id="layer1"
     transform="translate(0,203)">
    <path
       style="fill:#000000;fill-opacity:1;stroke:none;stroke-width:0.37184682;stroke-linecap:butt;stroke-linejoin:miter;stroke-miterlimit:4;stroke-dasharray:none;stroke-opacity:1"
       d="M 13.44369,-5.9121526 43.191434,-65.407648 H 117.5608 L 162.18243,-20.786027 117.5608,53.583342 28.317561,38.709468 Z"
       id="path4595"
       inkscape:connector-curvature="0"
       sodipodi:nodetypes="ccccccc" />
    <path
       style="fill:#000000;fill-opacity:1;stroke:none;stroke-width:0.37184682;stroke-linecap:butt;stroke-linejoin:miter;stroke-miterlimit:4;stroke-dasharray:none;stroke-opacity:1"
       d="m 79.804049,79.040551 89.243241,-44.621624 63.78604,40.331075 10.58333,-42.333333 -31.74999,-21.166667 10.58333,-31.75 42.33333,21.16666693 V 32.416669 l -6.2928,76.371621 -74.36936,-29.747739 44.62161,59.495499 36.04055,31.46395 -36.04055,72.65316 44.62162,14.87388 14.87388,14.87387 H 183.92116 l 27.74551,-91.81758 -27.74551,-12.29953 -44.62161,29.74774 14.87387,44.62162 14.87387,29.74775 H 94.677932 L 124.42567,242.65316 94.677932,198.03154 139.29955,153.40991 79.804049,79.040551"
       id="path4597"
       inkscape:connector-curvature="0"
       sodipodi:nodetypes="cccccccccccccccccccccccccc" />
    <path
       style="fill:#ffffff;fill-opacity:1;stroke:none;stroke-width:0.37184682px;stroke-linecap:butt;stroke-linejoin:miter;stroke-opacity:1"
       d="m 79.804049,79.040551 59.495491,29.747739 14.87388,-44.621622 14.87387,-14.873867 h 29.74775 l 14.87387,14.873874 -29.74775,14.873876 -44.62162,59.495499 -44.621608,-29.74776 z"
       id="path4599"
       inkscape:connector-curvature="0"
       sodipodi:nodetypes="cccccccccc" />
    <path
       style="fill:#000000;fill-opacity:1;stroke:none;stroke-width:0.37184682px;stroke-linecap:butt;stroke-linejoin:miter;stroke-opacity:1"
       d="m 353.2545,-174.95946 59.4955,-14.87387 59.49549,44.62162 -29.74775,74.369372 H 353.2545 l -29.74774,-44.621622 z"
       id="path4601"
       inkscape:connector-curvature="0"
       sodipodi:nodetypes="ccccccc" />
    <path
       style="fill:#000000;fill-opacity:1;stroke:none;stroke-width:0.37184682px;stroke-linecap:butt;stroke-linejoin:miter;stroke-opacity:1"
       d="m 412.74999,-41.094594 -74.36936,-29.747748 -31.46397,39.759011 -31.75,-42.333333 L 222.25,-94.58333 232.83333,-136.91666 222.25,-179.25 l -52.91667,21.16667 10.58334,74.083333 74.08333,31.75 42.33333,63.499999 -21.16667,52.916666 38.32883,65.788292 -31.75,21.16666 10.58333,31.75 63.5,-52.91666 -48.91216,-55.204958 17.16216,-29.46171 23.16892,-20.88063 35.75451,38.614866 14.87387,44.621622 L 412.75,92.770263 V 63.022528 L 368.12838,3.5270304 391.58333,-20.499998 444.5,53.583335 V 95.916668 L 476.25,106.5 486.83333,64.166668 465.66666,32.416669 Z"
       id="path4605"
       inkscape:connector-curvature="0"
       sodipodi:nodetypes="ccccccccccccccccccccccccccccccc" />
  </g>
</svg>
