<?xml version="1.0" encoding="UTF-8" standalone="no"?>
<!-- Created with Inkscape (http://www.inkscape.org/) -->

<svg
   xmlns:dc="http://purl.org/dc/elements/1.1/"
   xmlns:cc="http://creativecommons.org/ns#"
   xmlns:rdf="http://www.w3.org/1999/02/22-rdf-syntax-ns#"
   xmlns:svg="http://www.w3.org/2000/svg"
   xmlns="http://www.w3.org/2000/svg"
   xmlns:sodipodi="http://sodipodi.sourceforge.net/DTD/sodipodi-0.dtd"
   xmlns:inkscape="http://www.inkscape.org/namespaces/inkscape"
   width="500mm"
   height="500mm"
   viewBox="0 0 500 500"
   version="1.1"
   id="svg8"
   inkscape:version="0.92.3 (2405546, 2018-03-11)"
   sodipodi:docname="icon_fighting.svg">
  <defs
     id="defs2" />
  <sodipodi:namedview
     id="base"
     pagecolor="#ffffff"
     bordercolor="#666666"
     borderopacity="1.0"
     inkscape:pageopacity="0.0"
     inkscape:pageshadow="2"
     inkscape:zoom="0.37772166"
     inkscape:cx="164.26507"
     inkscape:cy="930.23014"
     inkscape:document-units="px"
     inkscape:current-layer="layer1"
     showgrid="true"
     inkscape:snap-page="true"
     inkscape:snap-bbox="false"
     inkscape:snap-grids="true"
     inkscape:snap-object-midpoints="false"
     inkscape:snap-bbox-midpoints="false"
     inkscape:window-width="1920"
     inkscape:window-height="1001"
     inkscape:window-x="-9"
     inkscape:window-y="-9"
     inkscape:window-maximized="1">
    <inkscape:grid
       type="xygrid"
       id="grid819" />
  </sodipodi:namedview>
  <metadata
     id="metadata5">
    <rdf:RDF>
      <cc:Work
         rdf:about="">
        <dc:format>image/svg+xml</dc:format>
        <dc:type
           rdf:resource="http://purl.org/dc/dcmitype/StillImage" />
        <dc:title />
      </cc:Work>
    </rdf:RDF>
  </metadata>
  <g
     inkscape:label="Layer 1"
     inkscape:groupmode="layer"
     id="layer1"
     transform="translate(0,203)">
    <path
       style="fill:#000000;fill-opacity:1;stroke:none;stroke-width:0.37184682;stroke-linecap:butt;stroke-linejoin:miter;stroke-miterlimit:4;stroke-dasharray:none;stroke-opacity:1"
       d="M 13.44369,-5.9121526 43.191434,-65.407648 H 117.5608 L 162.18243,-20.786027 117.5608,53.583342 28.317561,38.709468 Z"
       id="path4595"
       inkscape:connector-curvature="0"
       sodipodi:nodetypes="ccccccc" />
    <path
       style="fill:#000000;fill-opacity:1;stroke:none;stroke-width:1.40540528;stroke-linecap:butt;stroke-linejoin:miter;stroke-miterlimit:4;stroke-dasharray:none;stroke-opacity:1"
       d="M 840 689.76367 L 800 809.76367 L 920 889.76367 L 880 1049.7637 L 638.91797 897.33203 L 301.62109 1065.9805 L 497.36523 1165.1758 L 511.2207 1044.1816 L 564.79102 964.13672 L 648.10156 935.01562 L 741.38086 999.17383 L 600 1089.7637 L 526.48633 1290.8457 L 390.1543 1176.6445 L 526.48633 1347.0605 L 357.83789 1515.709 L 470.26953 1684.3594 L 357.83789 1796.791 L 638.91797 1796.791 L 582.70312 1684.3594 L 526.48633 1515.709 L 695.13477 1403.2773 L 800 1449.7637 L 695.13477 1796.791 L 1088.6484 1796.791 L 1032.4316 1740.5742 L 863.7832 1684.3594 L 1000 1409.7637 L 863.7832 1290.8457 L 695.13477 1065.9805 L 976.2168 1178.4121 L 1000 889.76367 L 1000 769.76367 L 840 689.76367 z M 390.1543 1176.6445 L 301.62109 1065.9805 L 370 1159.7637 L 390.1543 1176.6445 z "
       transform="matrix(0.26458333,0,0,0.26458333,0,-203)"
       id="path4597" />
    <path
       style="fill:#000000;fill-opacity:1;stroke:none;stroke-width:0.37184682px;stroke-linecap:butt;stroke-linejoin:miter;stroke-opacity:1"
       d="m 353.2545,-174.95946 59.4955,-14.87387 59.49549,44.62162 -29.74775,74.369372 H 353.2545 l -29.74774,-44.621622 z"
       id="path4601"
       inkscape:connector-curvature="0"
       sodipodi:nodetypes="ccccccc" />
    <path
       style="fill:#000000;fill-opacity:1;stroke:none;stroke-width:0.37184682px;stroke-linecap:butt;stroke-linejoin:miter;stroke-opacity:1"
       d="m 412.74999,-41.094594 -74.36936,-29.747748 -31.46397,39.759011 -31.75,-42.333333 L 222.25,-94.58333 232.83333,-136.91666 222.25,-179.25 l -52.91667,21.16667 10.58334,74.083333 74.08333,31.75 42.33333,63.499999 -21.16667,52.916666 38.32883,65.788292 -31.75,21.16666 10.58333,31.75 63.5,-52.91666 -48.91216,-55.204958 17.16216,-29.46171 23.16892,-20.88063 35.75451,38.614866 14.87387,44.621622 L 412.75,92.770263 V 63.022528 L 368.12838,3.5270304 391.58333,-20.499998 444.5,53.583335 V 95.916668 L 476.25,106.5 486.83333,64.166668 465.66666,32.416669 Z"
       id="path4605"
       inkscape:connector-curvature="0"
       sodipodi:nodetypes="ccccccccccccccccccccccccccccccc" />
  </g>
</svg>
